# xmcd
#
# Track frame offsets: 
#        150
#        18259
#        31302
#        49333
#        64404
#        86532
#        107850
#        126151
#        138342
#        157362
#        170252
#        185812
#        206554
#        230549
#        246141
#        257452
#
# Disc length: 3636 seconds
#
# Revision: 0
# Processed by: cddbd v1.5.1PL2 Copyright (c) Steve Scherf et al.
# Submitted via: ExactAudioCopy v0.95b1
#
DISCID=e50e3210
DTITLE=Diesel Doug and The Long Haul Truckers - Mistakes Were Made
DYEAR=2005
DGENRE=Country
TTITLE0=If I'd Shot Her When I Met Her (I'd Be Outta Jail By Now)
TTITLE1=I'd Like To Quit Drinkin' (But I Live Over A Bar) 
TTITLE2=Not Much To Say
TTITLE3=Picture Of You
TTITLE4=Circles
TTITLE5=Never Lookin' Down
TTITLE6=Merry Christmas From The Family
TTITLE7=18 Wheels Of Love (Live)
TTITLE8=Pride's Corner
TTITLE9=Another One Like Me
TTITLE10=An Angel Not A Saint
TTITLE11=Because Of You
TTITLE12=One Light
TTITLE13=Thin White Line
TTITLE14=Daddy'S Drinkin' Up Our Christmas
TTITLE15=My Girlfriend Is A Waitress
EXTD=
EXTT0=
EXTT1=
EXTT2=
EXTT3=
EXTT4=
EXTT5=
EXTT6=
EXTT7=
EXTT8=
EXTT9=
EXTT10=
EXTT11=
EXTT12=
EXTT13=
EXTT14=
EXTT15=
PLAYORDER=
